<svg width="551" height="482" viewBox="0 0 551 482" fill="none" xmlns="http://www.w3.org/2000/svg">
<path fill-rule="evenodd" clip-rule="evenodd" d="M319.234 169.195H418.347C415.179 142.342 407.938 118.507 396.624 97.6885C385.46 76.8702 370.978 59.2952 353.177 44.9638C335.376 30.4814 314.934 19.4688 291.853 11.926C268.923 4.38308 244.031 0.611633 217.179 0.611633C176.447 0.611633 139.789 9.96481 107.203 28.6712C74.6181 47.2266 48.8215 74.2302 29.8134 109.682C10.8054 145.133 1.30133 188.128 1.30133 238.665C1.30133 289.051 10.6545 331.97 29.3608 367.422C48.2181 402.874 73.8639 429.952 106.298 448.659C124.04 458.844 143.078 466.256 163.413 470.896C186.871 477.017 213.838 481.162 238.569 481.162C276.283 481.162 309.623 471.526 336.324 460.211C363.177 448.746 383.694 432.68 397.874 412.012C412.206 391.194 419.447 366.604 419.598 338.243C419.447 318.933 415.902 301.811 408.962 286.876C402.174 271.941 392.594 258.967 380.224 247.955C367.854 236.942 353.221 227.664 336.324 220.121C319.428 212.579 300.873 206.544 280.658 202.019L239.021 192.062C228.914 189.799 219.41 187.084 210.509 183.916C201.609 180.597 193.764 176.75 186.975 172.375C180.187 167.849 174.831 162.494 170.909 156.309C167.138 150.124 165.403 142.882 165.704 134.585C165.704 124.629 168.571 115.728 174.303 107.883C180.187 100.039 188.635 93.929 199.647 89.5542C200.743 89.1041 201.862 88.6765 203.006 88.2712C208.313 87.61 213.792 87.2794 219.441 87.2794C232.717 87.2794 245.012 89.1651 256.326 92.9365C267.791 96.7079 277.899 102.139 286.649 109.229C295.398 116.319 302.564 124.918 308.146 135.026C313.728 144.982 317.424 156.372 319.234 169.195ZM100.968 224.607C100.75 229.186 100.641 233.872 100.641 238.665C100.641 271.703 105.544 299.461 115.35 321.938C115.825 323.011 116.309 324.071 116.802 325.118H147.828C148.884 340.657 153.334 353.63 161.179 364.04C169.174 374.298 179.81 382.067 193.085 387.347C206.511 392.476 221.673 395.041 238.569 395.041C255.163 395.041 269.57 392.627 281.789 387.8C294.16 382.972 303.739 376.259 310.528 367.66C317.316 359.061 320.711 349.18 320.711 338.017C320.711 327.607 317.618 318.858 311.433 311.767C305.399 304.677 296.498 298.643 284.731 293.665C273.115 288.686 258.859 284.161 241.963 280.087L191.501 267.415C153.578 258.191 123.401 243.921 100.968 224.607Z" fill="#DBDBDB"/>
<path fill-rule="evenodd" clip-rule="evenodd" d="M318.244 169.433H417.357C414.189 142.581 406.948 118.745 395.634 97.9267C384.47 77.1083 369.988 59.5334 352.187 45.2019C334.385 30.7196 313.944 19.707 290.863 12.1641C267.933 4.62123 243.041 0.849792 216.188 0.849792C175.457 0.849792 138.798 10.203 106.213 28.9093C73.628 47.4648 47.8313 74.4683 28.8233 109.92C9.81519 145.371 0.311157 188.366 0.311157 238.903C0.311157 289.29 9.66433 332.209 28.3707 367.66C47.2279 403.112 72.8737 430.191 105.308 448.897C123.05 459.082 142.088 466.494 162.424 471.134C185.881 477.256 212.848 481.401 237.579 481.401C275.293 481.401 308.633 471.764 335.334 460.45C362.187 448.984 382.704 432.918 396.884 412.25C411.216 391.432 418.457 366.842 418.608 338.481C418.457 319.171 414.912 302.049 407.972 287.114C401.184 272.179 391.604 259.205 379.234 248.193C366.864 237.18 352.23 227.902 335.334 220.36C318.438 212.817 299.883 206.782 279.668 202.257L238.031 192.3C227.924 190.037 218.42 187.322 209.519 184.154C200.618 180.835 192.774 176.988 185.985 172.613C179.197 168.087 173.841 162.732 169.919 156.547C166.147 150.362 164.413 143.12 164.714 134.823C164.714 124.867 167.581 115.966 173.313 108.122C179.197 100.277 187.645 94.1672 198.657 89.7923C199.752 89.3423 200.872 88.9146 202.016 88.5094C207.323 87.8481 212.801 87.5175 218.451 87.5175C231.727 87.5175 244.022 89.4032 255.336 93.1747C266.801 96.9461 276.909 102.377 285.658 109.467C294.408 116.558 301.574 125.156 307.156 135.264C312.737 145.221 316.433 156.61 318.244 169.433ZM99.9782 224.845C99.76 229.424 99.6509 234.11 99.6509 238.903C99.6509 271.941 104.554 299.699 114.36 322.177C114.835 323.249 115.319 324.309 115.812 325.357H146.838C147.894 340.895 152.344 353.869 160.189 364.278C168.184 374.536 178.819 382.305 192.095 387.585C205.521 392.714 220.682 395.279 237.579 395.279C254.173 395.279 268.58 392.865 280.799 388.038C293.17 383.21 302.749 376.497 309.538 367.898C316.326 359.299 319.721 349.418 319.721 338.255C319.721 327.846 316.628 319.096 310.443 312.006C304.408 304.915 295.508 298.881 283.741 293.903C272.125 288.924 257.869 284.399 240.973 280.326L190.511 267.653C152.588 258.429 122.411 244.16 99.9782 224.845Z" fill="#DBDBDB"/>
<path fill-rule="evenodd" clip-rule="evenodd" d="M375.737 169.433H474.851C471.683 142.581 464.442 118.745 453.127 97.9267C441.964 77.1083 427.482 59.5334 409.68 45.2019C391.879 30.7196 371.438 19.707 348.357 12.1641C325.426 4.62123 300.535 0.849792 273.682 0.849792C232.951 0.849792 196.292 10.203 163.707 28.9093C131.122 47.4648 105.325 74.4683 86.317 109.92C67.309 145.371 57.8049 188.366 57.8049 238.903C57.8049 289.29 67.1581 332.209 85.8645 367.66C104.722 403.112 130.367 430.191 162.802 448.897C180.543 459.082 199.582 466.494 219.917 471.134C243.375 477.256 270.341 481.401 295.072 481.401C332.787 481.401 366.126 471.764 392.828 460.45C419.681 448.984 440.197 432.918 454.378 412.25C468.709 391.432 475.951 366.842 476.101 338.481C475.951 319.171 472.405 302.049 465.466 287.114C458.677 272.179 449.098 259.205 436.728 248.193C424.357 237.18 409.724 227.902 392.828 220.36C375.932 212.817 357.377 206.782 337.162 202.257L295.525 192.3C285.417 190.037 275.913 187.322 267.013 184.154C258.112 180.835 250.268 176.988 243.479 172.613C236.69 168.087 231.335 162.732 227.413 156.547C223.641 150.362 221.906 143.12 222.208 134.823C222.208 124.867 225.074 115.966 230.807 108.122C236.69 100.277 245.138 94.1672 256.151 89.7923C257.246 89.3423 258.366 88.9146 259.51 88.5094C264.817 87.8481 270.295 87.5175 275.945 87.5175C289.221 87.5175 301.515 89.4032 312.83 93.1747C324.295 96.9461 334.402 102.377 343.152 109.467C351.902 116.558 359.068 125.156 364.649 135.264C370.231 145.221 373.927 156.61 375.737 169.433ZM157.472 224.845C157.254 229.424 157.145 234.11 157.145 238.903C157.145 271.941 162.048 299.699 171.853 322.177C172.328 323.249 172.812 324.309 173.305 325.357H204.331C205.387 340.895 209.838 353.869 217.682 364.278C225.678 374.536 236.313 382.305 249.589 387.585C263.015 392.714 278.176 395.279 295.072 395.279C311.667 395.279 326.074 392.865 338.293 388.038C350.663 383.21 360.243 376.497 367.031 367.898C373.82 359.299 377.214 349.418 377.214 338.255C377.214 327.846 374.122 319.096 367.937 312.006C361.902 304.915 353.002 298.881 341.235 293.903C329.619 288.924 315.363 284.399 298.467 280.326L248.005 267.653C210.082 258.429 179.904 244.16 157.472 224.845Z" fill="#EAEAEA"/>
<path fill-rule="evenodd" clip-rule="evenodd" d="M450 169.433H549.114C545.946 142.581 538.704 118.745 527.39 97.9267C516.227 77.1083 501.744 59.5334 483.943 45.2019C466.142 30.7196 445.701 19.707 422.62 12.1641C399.689 4.62123 374.798 0.849792 347.945 0.849792C307.213 0.849792 270.555 10.203 237.97 28.9093C205.385 47.4648 179.588 74.4683 160.58 109.92C141.572 145.371 132.068 188.366 132.068 238.903C132.068 289.29 141.421 332.209 160.127 367.66C178.984 403.112 204.63 430.191 237.065 448.897C254.806 459.082 273.845 466.494 294.18 471.134C317.638 477.256 344.604 481.401 369.335 481.401C407.049 481.401 440.389 471.764 467.091 460.45C493.944 448.984 514.46 432.918 528.641 412.25C542.972 391.432 550.213 366.842 550.364 338.481C550.213 319.171 546.668 302.049 539.729 287.114C532.94 272.179 523.361 259.205 510.99 248.193C498.62 237.18 483.987 227.902 467.091 220.36C450.195 212.817 431.639 206.782 411.424 202.257L369.788 192.3C359.68 190.037 350.176 187.322 341.276 184.154C332.375 180.835 324.53 176.988 317.742 172.613C310.953 168.087 305.598 162.732 301.675 156.547C297.904 150.362 296.169 143.12 296.471 134.823C296.471 124.867 299.337 115.966 305.07 108.122C310.953 100.277 319.401 94.1672 330.414 89.7923C331.509 89.3423 332.629 88.9146 333.773 88.5094C339.08 87.8481 344.558 87.5175 350.208 87.5175C363.483 87.5175 375.778 89.4032 387.093 93.1747C398.558 96.9461 408.665 102.377 417.415 109.467C426.165 116.558 433.33 125.156 438.912 135.264C444.494 145.221 448.19 156.61 450 169.433ZM231.735 224.845C231.517 229.424 231.408 234.11 231.408 238.903C231.408 271.941 236.31 299.699 246.116 322.177C246.591 323.249 247.075 324.309 247.568 325.357H278.594C279.65 340.895 284.101 353.869 291.945 364.278C299.941 374.536 310.576 382.305 323.852 387.585C337.278 392.714 352.439 395.279 369.335 395.279C385.929 395.279 400.336 392.865 412.556 388.038C424.926 383.21 434.506 376.497 441.294 367.898C448.083 359.299 451.477 349.418 451.477 338.255C451.477 327.846 448.385 319.096 442.199 312.006C436.165 304.915 427.264 298.881 415.498 293.903C403.882 288.924 389.625 284.399 372.729 280.326L322.268 267.653C284.345 258.429 254.167 244.16 231.735 224.845Z" fill="white"/>
</svg>
