<svg width="551" height="481" viewBox="0 0 551 481" fill="none" xmlns="http://www.w3.org/2000/svg">
<path fill-rule="evenodd" clip-rule="evenodd" d="M318.923 168.583H418.036C414.868 141.731 407.627 117.895 396.313 97.0769C385.149 76.2585 370.667 58.6836 352.866 44.3521C335.064 29.8698 314.623 18.8572 291.542 11.3143C268.612 3.77144 243.72 0 216.868 0C176.136 0 139.478 9.35318 106.892 28.0595C74.3071 46.615 48.5104 73.6185 29.5023 109.07C10.4943 144.522 0.990234 187.516 0.990234 238.053C0.990234 288.44 10.3434 331.359 29.0498 366.81C47.907 402.262 73.5528 429.341 105.987 448.047C123.728 458.232 142.767 465.644 163.102 470.284C186.559 476.406 213.526 480.551 238.258 480.551C275.972 480.551 309.311 470.914 336.013 459.6C362.866 448.135 383.383 432.068 397.563 411.401C411.895 390.582 419.136 365.993 419.287 337.631C419.136 318.322 415.591 301.199 408.651 286.264C401.863 271.329 392.283 258.356 379.913 247.343C367.543 236.33 352.909 227.053 336.013 219.51C319.117 211.967 300.562 205.933 280.347 201.407L238.71 191.45C228.603 189.187 219.099 186.472 210.198 183.304C201.297 179.985 193.453 176.138 186.664 171.763C179.876 167.238 174.52 161.882 170.598 155.697C166.826 149.512 165.092 142.271 165.393 133.974C165.393 124.017 168.26 115.116 173.992 107.272C179.876 99.4271 188.324 93.3174 199.336 88.9425C200.431 88.4925 201.551 88.0649 202.695 87.6596C208.002 86.9984 213.48 86.6677 219.13 86.6677C232.406 86.6677 244.701 88.5535 256.015 92.3249C267.48 96.0963 277.588 101.527 286.337 108.618C295.087 115.708 302.253 124.307 307.835 134.414C313.416 144.371 317.112 155.761 318.923 168.583ZM100.657 223.995C100.439 228.574 100.33 233.26 100.33 238.053C100.33 271.091 105.233 298.849 115.039 321.327C115.514 322.399 115.998 323.459 116.491 324.507H147.517C148.573 340.045 153.023 353.019 160.868 363.428C168.863 373.686 179.498 381.455 192.774 386.736C206.2 391.865 221.361 394.429 238.258 394.429C254.852 394.429 269.259 392.016 281.478 387.188C293.849 382.361 303.428 375.647 310.217 367.049C317.005 358.45 320.4 348.569 320.4 337.405C320.4 326.996 317.307 318.246 311.122 311.156C305.087 304.066 296.187 298.031 284.42 293.053C272.804 288.075 258.548 283.549 241.652 279.476L191.19 266.804C153.267 257.579 123.09 243.31 100.657 223.995Z" fill="#3A65B8"/>
<path fill-rule="evenodd" clip-rule="evenodd" d="M317.932 168.822H417.046C413.878 141.969 406.637 118.133 395.322 97.315C384.159 76.4967 369.677 58.9218 351.875 44.5903C334.074 30.108 313.633 19.0954 290.552 11.5525C267.621 4.0096 242.73 0.238159 215.877 0.238159C175.146 0.238159 138.487 9.59134 105.902 28.2977C73.3168 46.8532 47.5202 73.8567 28.5121 109.308C9.50403 144.76 0 187.754 0 238.292C0 288.678 9.35317 331.597 28.0595 367.049C46.9167 402.5 72.5625 429.579 104.997 448.285C122.738 458.47 141.776 465.882 162.111 470.522C185.569 476.644 212.536 480.789 237.267 480.789C274.982 480.789 308.321 471.152 335.023 459.838C361.876 448.373 382.392 432.306 396.573 411.639C410.904 390.82 418.146 366.231 418.296 337.87C418.146 318.56 414.6 301.437 407.661 286.502C400.872 271.568 391.293 258.594 378.923 247.581C366.552 236.569 351.919 227.291 335.023 219.748C318.127 212.205 299.572 206.171 279.357 201.645L237.72 191.688C227.612 189.426 218.108 186.71 209.208 183.542C200.307 180.223 192.463 176.376 185.674 172.002C178.885 167.476 173.53 162.12 169.608 155.935C165.836 149.75 164.101 142.509 164.403 134.212C164.403 124.255 167.269 115.354 173.002 107.51C178.885 99.6653 187.333 93.5556 198.346 89.1807C199.441 88.7307 200.561 88.303 201.705 87.8977C207.012 87.2365 212.49 86.9059 218.14 86.9059C231.416 86.9059 243.711 88.7916 255.025 92.563C266.49 96.3345 276.597 101.765 285.347 108.856C294.097 115.946 301.263 124.545 306.844 134.652C312.426 144.609 316.122 155.999 317.932 168.822ZM99.6671 224.234C99.4489 228.812 99.3398 233.498 99.3398 238.292C99.3398 271.329 104.243 299.087 114.048 321.565C114.523 322.637 115.007 323.697 115.5 324.745H146.526C147.582 340.283 152.033 353.257 159.877 363.666C167.873 373.924 178.508 381.694 191.784 386.974C205.21 392.103 220.371 394.667 237.267 394.667C253.862 394.667 268.269 392.254 280.488 387.426C292.858 382.599 302.438 375.886 309.226 367.287C316.015 358.688 319.409 348.807 319.409 337.643C319.409 327.234 316.317 318.484 310.132 311.394C304.097 304.304 295.197 298.269 283.43 293.291C271.814 288.313 257.558 283.787 240.662 279.714L190.2 267.042C152.277 257.817 122.1 243.548 99.6671 224.234Z" fill="#3A65B8"/>
<path fill-rule="evenodd" clip-rule="evenodd" d="M375.426 168.822H474.54C471.372 141.969 464.131 118.133 452.816 97.315C441.653 76.4967 427.17 58.9218 409.369 44.5903C391.568 30.108 371.127 19.0954 348.046 11.5525C325.115 4.0096 300.224 0.238159 273.371 0.238159C232.639 0.238159 195.981 9.59134 163.396 28.2977C130.811 46.8532 105.014 73.8567 86.0059 109.308C66.9978 144.76 57.4938 187.754 57.4938 238.292C57.4938 288.678 66.8469 331.597 85.5533 367.049C104.41 402.5 130.056 429.579 162.491 448.285C180.232 458.47 199.27 465.882 219.605 470.522C243.063 476.644 270.03 480.789 294.761 480.789C332.475 480.789 365.815 471.152 392.517 459.838C419.369 448.373 439.886 432.306 454.067 411.639C468.398 390.82 475.639 366.231 475.79 337.87C475.639 318.56 472.094 301.437 465.155 286.502C458.366 271.568 448.787 258.594 436.416 247.581C424.046 236.569 409.413 227.291 392.517 219.748C375.621 212.205 357.065 206.171 336.85 201.645L295.214 191.688C285.106 189.426 275.602 186.71 266.702 183.542C257.801 180.223 249.956 176.376 243.168 172.002C236.379 167.476 231.024 162.12 227.101 155.935C223.33 149.75 221.595 142.509 221.897 134.212C221.897 124.255 224.763 115.354 230.496 107.51C236.379 99.6653 244.827 93.5556 255.84 89.1807C256.935 88.7307 258.055 88.303 259.199 87.8977C264.506 87.2365 269.984 86.9059 275.634 86.9059C288.909 86.9059 301.204 88.7916 312.519 92.563C323.984 96.3345 334.091 101.765 342.841 108.856C351.591 115.946 358.757 124.545 364.338 134.652C369.92 144.609 373.616 155.999 375.426 168.822ZM157.161 224.234C156.943 228.812 156.834 233.498 156.834 238.292C156.834 271.329 161.736 299.087 171.542 321.565C172.017 322.637 172.501 323.697 172.994 324.745H204.02C205.076 340.283 209.527 353.257 217.371 363.666C225.367 373.924 236.002 381.694 249.277 386.974C262.704 392.103 277.865 394.667 294.761 394.667C311.355 394.667 325.762 392.254 337.982 387.426C350.352 382.599 359.932 375.886 366.72 367.287C373.509 358.688 376.903 348.807 376.903 337.643C376.903 327.234 373.81 318.484 367.625 311.394C361.591 304.304 352.69 298.269 340.923 293.291C329.307 288.313 315.051 283.787 298.155 279.714L247.693 267.042C209.771 257.817 179.593 243.548 157.161 224.234Z" fill="#4270C9"/>
<path fill-rule="evenodd" clip-rule="evenodd" d="M449.689 168.822H548.803C545.634 141.969 538.393 118.133 527.079 97.315C515.916 76.4967 501.433 58.9218 483.632 44.5903C465.831 30.108 445.39 19.0954 422.308 11.5525C399.378 4.0096 374.487 0.238159 347.634 0.238159C306.902 0.238159 270.244 9.59134 237.659 28.2977C205.073 46.8532 179.277 73.8567 160.269 109.308C141.261 144.76 131.757 187.754 131.757 238.292C131.757 288.678 141.11 331.597 159.816 367.049C178.673 402.5 204.319 429.579 236.753 448.285C254.495 458.47 273.533 465.882 293.868 470.522C317.326 476.644 344.292 480.789 369.024 480.789C406.738 480.789 440.078 471.152 466.78 459.838C493.632 448.373 514.149 432.306 528.33 411.639C542.661 390.82 549.902 366.231 550.053 337.87C549.902 318.56 546.357 301.437 539.418 286.502C532.629 271.568 523.05 258.594 510.679 247.581C498.309 236.569 483.676 227.291 466.78 219.748C449.884 212.205 431.328 206.171 411.113 201.645L369.476 191.688C359.369 189.426 349.865 186.71 340.964 183.542C332.064 180.223 324.219 176.376 317.431 172.002C310.642 167.476 305.286 162.12 301.364 155.935C297.593 149.75 295.858 142.509 296.16 134.212C296.16 124.255 299.026 115.354 304.758 107.51C310.642 99.6653 319.09 93.5556 330.103 89.1807C331.198 88.7307 332.317 88.303 333.462 87.8978C338.768 87.2365 344.247 86.9059 349.897 86.9059C363.172 86.9059 375.467 88.7916 386.781 92.563C398.247 96.3345 408.354 101.765 417.104 108.856C425.854 115.946 433.019 124.545 438.601 134.652C444.183 144.609 447.879 155.999 449.689 168.822ZM231.424 224.234C231.205 228.812 231.096 233.498 231.096 238.292C231.096 271.329 235.999 299.087 245.805 321.565C246.28 322.637 246.764 323.697 247.257 324.745H278.283C279.339 340.283 283.789 353.257 291.634 363.666C299.629 373.924 310.265 381.694 323.54 386.974C336.967 392.103 352.128 394.667 369.024 394.667C385.618 394.667 400.025 392.254 412.245 387.426C424.615 382.599 434.194 375.886 440.983 367.287C447.772 358.688 451.166 348.807 451.166 337.643C451.166 327.234 448.073 318.484 441.888 311.394C435.854 304.304 426.953 298.269 415.186 293.291C403.57 288.313 389.314 283.787 372.418 279.714L321.956 267.042C284.034 257.817 253.856 243.548 231.424 224.234Z" fill="#5E95FF"/>
</svg>
